# xmcd CD database file
#
# Track frame offsets:
#	150
#	24150
#	45525
#	64425
#	84075
#	104100
#	127275
#	142800
#	165300
#	184875
#	204750
#	223350
#
# Disc length: 3249 seconds
#
# Revision: 2
# Processed by: cddbd v1.5.1PL2 Copyright (c) Steve Scherf et al.
# Submitted via: CDex 1.51
#
DISCID=a90caf0c
DTITLE=レミオロメン - ether
DYEAR=2005
DGENRE=JPop
TTITLE0=春夏秋冬
TTITLE1=モラトリアム
TTITLE2=春景色
TTITLE3=アカシア
TTITLE4=永遠と一瞬
TTITLE5=深呼吸
TTITLE6=ドッグイヤー
TTITLE7=五月雨
TTITLE8=コスモス
TTITLE9=3月9日
TTITLE10=南風
TTITLE11=海のバラッド
EXTD=YEAR: 2005
EXTT0=
EXTT1=
EXTT2=
EXTT3=
EXTT4=
EXTT5=
EXTT6=
EXTT7=
EXTT8=
EXTT9=
EXTT10=
EXTT11=
PLAYORDER=
